<?xml version="1.0" encoding="UTF-8" standalone="no"?>
<svg
   xmlns:dc="http://purl.org/dc/elements/1.1/"
   xmlns:cc="http://creativecommons.org/ns#"
   xmlns:rdf="http://www.w3.org/1999/02/22-rdf-syntax-ns#"
   xmlns:svg="http://www.w3.org/2000/svg"
   xmlns="http://www.w3.org/2000/svg"
   xmlns:sodipodi="http://sodipodi.sourceforge.net/DTD/sodipodi-0.dtd"
   xmlns:inkscape="http://www.inkscape.org/namespaces/inkscape"
   width="700pt"
   height="700pt"
   version="1.1"
   viewBox="0 0 700 700"
   id="svg146"
   sodipodi:docname="iconoMail.svg"
   inkscape:version="0.92.4 (5da689c313, 2019-01-14)">
  <metadata
     id="metadata150">
    <rdf:RDF>
      <cc:Work
         rdf:about="">
        <dc:format>image/svg+xml</dc:format>
        <dc:type
           rdf:resource="http://purl.org/dc/dcmitype/StillImage" />
        <dc:title></dc:title>
      </cc:Work>
    </rdf:RDF>
  </metadata>
  <sodipodi:namedview
     pagecolor="#ffffff"
     bordercolor="#666666"
     borderopacity="1"
     objecttolerance="10"
     gridtolerance="10"
     guidetolerance="10"
     inkscape:pageopacity="0"
     inkscape:pageshadow="2"
     inkscape:window-width="1366"
     inkscape:window-height="705"
     id="namedview148"
     showgrid="false"
     inkscape:zoom="0.25285714"
     inkscape:cx="-25.706215"
     inkscape:cy="466.66667"
     inkscape:window-x="-8"
     inkscape:window-y="-8"
     inkscape:window-maximized="1"
     inkscape:current-layer="g1025" />
  <defs
     id="defs50">
    <symbol
       id="p"
       overflow="visible">
      <path
         d="m29.312-1.75c-1.5117 0.78125-3.0898 1.3711-4.7344 1.7656-1.6367 0.40625-3.3398 0.60938-5.1094 0.60938-5.3125 0-9.5273-1.4844-12.641-4.4531-3.1055-2.9688-4.6562-7-4.6562-12.094s1.5508-9.125 4.6562-12.094c3.1133-2.9688 7.3281-4.4531 12.641-4.4531 1.7695 0 3.4727 0.19922 5.1094 0.59375 1.6445 0.39844 3.2227 0.99219 4.7344 1.7812v6.5938c-1.5312-1.0391-3.0391-1.8008-4.5156-2.2812-1.4805-0.48828-3.0391-0.73438-4.6719-0.73438-2.9375 0-5.2461 0.94531-6.9219 2.8281-1.6797 1.875-2.5156 4.4648-2.5156 7.7656 0 3.293 0.83594 5.8828 2.5156 7.7656 1.6758 1.875 3.9844 2.8125 6.9219 2.8125 1.6328 0 3.1914-0.23828 4.6719-0.71875 1.4766-0.48828 2.9844-1.2539 4.5156-2.2969z"
         id="path2" />
    </symbol>
    <symbol
       id="i"
       overflow="visible">
      <path
         d="m21.453-17.406c-0.67969-0.3125-1.3516-0.53906-2.0156-0.6875-0.65625-0.15625-1.3203-0.23438-1.9844-0.23438-1.9688 0-3.4844 0.63281-4.5469 1.8906-1.0547 1.2617-1.5781 3.0703-1.5781 5.4219v11.016h-7.6562v-23.922h7.6562v3.9219c0.97656-1.5625 2.1016-2.7031 3.375-3.4219 1.2812-0.71875 2.8125-1.0781 4.5938-1.0781 0.25 0 0.52344 0.011719 0.82812 0.03125 0.30078 0.023438 0.73438 0.070312 1.2969 0.14062z"
         id="path5" />
    </symbol>
    <symbol
       id="b"
       overflow="visible">
      <path
         d="m27.562-12.031v2.1875h-17.891c0.1875 1.793 0.83203 3.1367 1.9375 4.0312 1.1133 0.89844 2.6719 1.3438 4.6719 1.3438 1.6016 0 3.25-0.23438 4.9375-0.70312 1.6875-0.47656 3.4219-1.2031 5.2031-2.1719v5.8906c-1.8047 0.6875-3.6094 1.2031-5.4219 1.5469-1.8125 0.35156-3.6211 0.53125-5.4219 0.53125-4.3359 0-7.7031-1.0977-10.109-3.2969-2.3984-2.207-3.5938-5.2969-3.5938-9.2656 0-3.9062 1.1758-6.9727 3.5312-9.2031 2.3633-2.2383 5.6094-3.3594 9.7344-3.3594 3.7578 0 6.7695 1.1367 9.0312 3.4062 2.2578 2.2617 3.3906 5.2812 3.3906 9.0625zm-7.8594-2.5312c0-1.457-0.42969-2.6289-1.2812-3.5156-0.84375-0.89453-1.9492-1.3438-3.3125-1.3438-1.4922 0-2.6992 0.41797-3.625 1.25-0.91797 0.83594-1.4922 2.0391-1.7188 3.6094z"
         id="path8" />
    </symbol>
    <symbol
       id="a"
       overflow="visible">
      <path
         d="m14.391-10.766c-1.5938 0-2.793 0.27344-3.5938 0.8125-0.80469 0.54297-1.2031 1.3398-1.2031 2.3906 0 0.96875 0.32031 1.7305 0.96875 2.2812 0.64453 0.54297 1.5469 0.8125 2.7031 0.8125 1.4375 0 2.6445-0.51562 3.625-1.5469 0.98828-1.0312 1.4844-2.3203 1.4844-3.875v-0.875zm11.688-2.8906v13.656h-7.7031v-3.5469c-1.0312 1.4492-2.1875 2.5078-3.4688 3.1719s-2.8398 1-4.6719 1c-2.4805 0-4.4961-0.72266-6.0469-2.1719-1.543-1.4453-2.3125-3.3203-2.3125-5.625 0-2.8125 0.96094-4.8672 2.8906-6.1719 1.9375-1.3125 4.9688-1.9688 9.0938-1.9688h4.5156v-0.60938c0-1.207-0.48047-2.0938-1.4375-2.6562-0.94922-0.5625-2.4375-0.84375-4.4688-0.84375-1.6367 0-3.1562 0.16797-4.5625 0.5-1.4062 0.32422-2.7188 0.8125-3.9375 1.4688v-5.8281c1.6445-0.40625 3.2891-0.70703 4.9375-0.90625 1.6562-0.20703 3.3047-0.3125 4.9531-0.3125 4.3203 0 7.4375 0.85547 9.3438 2.5625 1.9141 1.6992 2.875 4.4609 2.875 8.2812z"
         id="path11" />
    </symbol>
    <symbol
       id="h"
       overflow="visible">
      <path
         d="m12.031-30.719v6.7969h7.875v5.4688h-7.875v10.141c0 1.1172 0.21875 1.8711 0.65625 2.2656 0.4375 0.38672 1.3125 0.57812 2.625 0.57812h3.9375v5.4688h-6.5625c-3.0234 0-5.1641-0.62891-6.4219-1.8906-1.2617-1.2578-1.8906-3.3984-1.8906-6.4219v-10.141h-3.7969v-5.4688h3.7969v-6.7969z"
         id="path14" />
    </symbol>
    <symbol
       id="e"
       overflow="visible">
      <path
         d="m19.953-20.422v-12.812h7.6875v33.234h-7.6875v-3.4531c-1.0547 1.4062-2.2148 2.4375-3.4844 3.0938-1.2734 0.65625-2.7422 0.98438-4.4062 0.98438-2.9492 0-5.3711-1.1719-7.2656-3.5156-1.8867-2.3438-2.8281-5.3594-2.8281-9.0469s0.94141-6.7031 2.8281-9.0469c1.8945-2.3438 4.3164-3.5156 7.2656-3.5156 1.6562 0 3.1172 0.33594 4.3906 1 1.2812 0.65625 2.4453 1.6836 3.5 3.0781zm-5.0469 15.484c1.6445 0 2.8945-0.59766 3.75-1.7969 0.86328-1.1953 1.2969-2.9297 1.2969-5.2031 0-2.2812-0.43359-4.0195-1.2969-5.2188-0.85547-1.1953-2.1055-1.7969-3.75-1.7969-1.625 0-2.8711 0.60156-3.7344 1.7969-0.85547 1.1992-1.2812 2.9375-1.2812 5.2188 0 2.2734 0.42578 4.0078 1.2812 5.2031 0.86328 1.1992 2.1094 1.7969 3.7344 1.7969z"
         id="path17" />
    </symbol>
    <symbol
       id="g"
       overflow="visible">
      <path
         d="m16.406-4.9375c1.6328 0 2.8828-0.59766 3.75-1.7969 0.86328-1.1953 1.2969-2.9297 1.2969-5.2031 0-2.2812-0.43359-4.0195-1.2969-5.2188-0.86719-1.1953-2.1172-1.7969-3.75-1.7969-1.6367 0-2.8906 0.60547-3.7656 1.8125-0.875 1.1992-1.3125 2.9336-1.3125 5.2031 0 2.2617 0.4375 3.9961 1.3125 5.2031 0.875 1.1992 2.1289 1.7969 3.7656 1.7969zm-5.0781-15.484c1.0508-1.3945 2.2188-2.4219 3.5-3.0781 1.2812-0.66406 2.7539-1 4.4219-1 2.9453 0 5.3672 1.1719 7.2656 3.5156 1.8945 2.3438 2.8438 5.3594 2.8438 9.0469s-0.94922 6.7031-2.8438 9.0469c-1.8984 2.3438-4.3203 3.5156-7.2656 3.5156-1.668 0-3.1406-0.33594-4.4219-1s-2.4492-1.6914-3.5-3.0781v3.4531h-7.6562v-33.234h7.6562z"
         id="path20" />
    </symbol>
    <symbol
       id="f"
       overflow="visible">
      <path
         d="m0.53125-23.922h7.6562l6.4219 16.234 5.4688-16.234h7.6562l-10.062 26.188c-1.0117 2.6641-2.1953 4.5234-3.5469 5.5781-1.3438 1.0625-3.1211 1.5938-5.3281 1.5938h-4.4219v-5.0156h2.3906c1.3008 0 2.2422-0.21094 2.8281-0.625 0.59375-0.40625 1.0547-1.1484 1.3906-2.2188l0.20312-0.65625z"
         id="path23" />
    </symbol>
    <symbol
       id="d"
       overflow="visible">
      <path
         d="m3.6719-33.234h7.6562v33.234h-7.6562z"
         id="path26" />
    </symbol>
    <symbol
       id="o"
       overflow="visible">
      <path
         d="m3.6719-33.234h7.6562v18.094l8.7969-8.7812h8.8906l-11.688 10.969 12.594 12.953h-9.2656l-9.3281-9.9688v9.9688h-7.6562z"
         id="path29" />
    </symbol>
    <symbol
       id="n"
       overflow="visible">
      <path
         d="m27.734-14.562v14.562h-7.7031v-11.109c0-2.0938-0.046875-3.5312-0.14062-4.3125-0.085937-0.78125-0.24219-1.3594-0.46875-1.7344-0.30469-0.5-0.71094-0.88281-1.2188-1.1562-0.51172-0.28125-1.0938-0.42188-1.75-0.42188-1.5938 0-2.8516 0.61719-3.7656 1.8438-0.90625 1.2305-1.3594 2.9375-1.3594 5.125v11.766h-7.6562v-33.234h7.6562v12.812c1.1445-1.3945 2.3633-2.4219 3.6562-3.0781 1.3008-0.66406 2.7383-1 4.3125-1 2.7578 0 4.8516 0.85156 6.2812 2.5469 1.4375 1.6875 2.1562 4.1523 2.1562 7.3906z"
         id="path32" />
    </symbol>
    <symbol
       id="c"
       overflow="visible">
      <path
         d="m3.6719-23.922h7.6562v23.922h-7.6562zm0-9.3125h7.6562v6.2344h-7.6562z"
         id="path35" />
    </symbol>
    <symbol
       id="m"
       overflow="visible">
      <path
         d="m19.422-33.234v5.0156h-4.2344c-1.0859 0-1.8398 0.19922-2.2656 0.59375-0.42969 0.38672-0.64062 1.0625-0.64062 2.0312v1.6719h6.5312v5.4688h-6.5312v18.453h-7.6406v-18.453h-3.8125v-5.4688h3.8125v-1.6719c0-2.6016 0.72266-4.5234 2.1719-5.7656 1.457-1.25 3.707-1.875 6.75-1.875z"
         id="path38" />
    </symbol>
    <symbol
       id="l"
       overflow="visible">
      <path
         d="m21.875 6.2656v4.0469h-21.875v-4.0469z"
         id="path41" />
    </symbol>
    <symbol
       id="k"
       overflow="visible">
      <path
         d="m22.359-23.172v5.7969c-1.6367-0.67578-3.2148-1.1875-4.7344-1.5312-1.5234-0.34375-2.9609-0.51562-4.3125-0.51562-1.4609 0-2.543 0.18359-3.25 0.54688-0.69922 0.36719-1.0469 0.92188-1.0469 1.6719 0 0.61719 0.26562 1.0898 0.79688 1.4219 0.53125 0.32422 1.4883 0.5625 2.875 0.71875l1.3438 0.1875c3.9141 0.5 6.5508 1.3242 7.9062 2.4688 1.3516 1.1367 2.0312 2.9219 2.0312 5.3594 0 2.5547-0.94531 4.4688-2.8281 5.75-1.875 1.2812-4.6797 1.9219-8.4062 1.9219-1.5859 0-3.2188-0.125-4.9062-0.375s-3.4219-0.625-5.2031-1.125v-5.8125c1.5195 0.74219 3.082 1.2969 4.6875 1.6719 1.6016 0.36719 3.2344 0.54688 4.8906 0.54688 1.4883 0 2.6094-0.20312 3.3594-0.60938 0.75781-0.41406 1.1406-1.0312 1.1406-1.8438 0-0.6875-0.26172-1.1953-0.78125-1.5312-0.52344-0.33203-1.5586-0.59375-3.1094-0.78125l-1.3438-0.17188c-3.4062-0.42578-5.793-1.2109-7.1562-2.3594-1.3672-1.1562-2.0469-2.9102-2.0469-5.2656 0-2.5312 0.86719-4.4062 2.6094-5.625 1.7383-1.2266 4.3984-1.8438 7.9844-1.8438 1.4062 0 2.8828 0.10938 4.4375 0.32812 1.5508 0.21094 3.2383 0.54297 5.0625 1z"
         id="path44" />
    </symbol>
    <symbol
       id="j"
       overflow="visible">
      <path
         d="m19.953-4.0625c-1.0547 1.3984-2.2148 2.4219-3.4844 3.0781-1.2734 0.65625-2.7422 0.98438-4.4062 0.98438-2.918 0-5.3281-1.1484-7.2344-3.4531-1.9062-2.3008-2.8594-5.2266-2.8594-8.7812 0-3.582 0.95312-6.5156 2.8594-8.7969s4.3164-3.4219 7.2344-3.4219c1.6641 0 3.1328 0.32812 4.4062 0.98438 1.2695 0.64844 2.4297 1.6797 3.4844 3.0938v-3.5469h7.6875v21.516c0 3.8438-1.2148 6.7734-3.6406 8.7969-2.4297 2.0312-5.9492 3.0469-10.562 3.0469-1.5 0-2.9492-0.11719-4.3438-0.34375-1.3984-0.21875-2.7969-0.57031-4.2031-1.0469v-5.9531c1.3438 0.76953 2.6562 1.3438 3.9375 1.7188s2.5664 0.5625 3.8594 0.5625c2.5078 0 4.3477-0.54688 5.5156-1.6406 1.1641-1.0938 1.75-2.8047 1.75-5.1406zm-5.0469-14.891c-1.5742 0-2.8047 0.58984-3.6875 1.7656-0.88672 1.168-1.3281 2.8203-1.3281 4.9531 0 2.1875 0.42578 3.8516 1.2812 4.9844 0.85156 1.1367 2.0977 1.7031 3.7344 1.7031 1.5938 0 2.832-0.58203 3.7188-1.75 0.88281-1.1758 1.3281-2.8203 1.3281-4.9375 0-2.1328-0.44531-3.7852-1.3281-4.9531-0.88672-1.1758-2.125-1.7656-3.7188-1.7656z"
         id="path47" />
    </symbol>
  </defs>
  <g
     id="g1025">
    <g
       id="g1049"
       transform="matrix(1.1109429,0,0,1.1109543,-50.83743,158.2284)"
       style="fill:#484747;fill-opacity:1"
       inkscape:export-xdpi="96"
       inkscape:export-ydpi="96">
      <path
         inkscape:connector-curvature="0"
         id="path52"
         d="m 341.48373,233.54881 c -2.2383,0 -4.4805,-0.85938 -6.1875,-2.5625 -3.4219,-3.4219 -3.4219,-8.9531 0,-12.371 l 155.01,-155.01 c 3.4219,-3.4219 8.9531,-3.4219 12.371,0 3.4219,3.4219 3.4219,8.9531 0,12.371 l -155,155.01 c -1.7148,1.7031 -3.9453,2.5625 -6.1875,2.5625 z"
         style="fill:#484747;fill-opacity:1" />
      <path
         inkscape:connector-curvature="0"
         id="path54"
         d="m 304.35373,196.41881 c -2.2383,0 -4.4805,-0.85938 -6.1875,-2.5625 -3.4219,-3.4219 -3.4219,-8.9531 0,-12.371 l 130.26,-130.26 c 3.4219,-3.4219 8.9531,-3.4219 12.371,0 3.4219,3.4219 3.4219,8.9531 0,12.371 l -130.26,130.26 c -1.707,1.707 -3.9492,2.5664 -6.1875,2.5664 z"
         style="fill:#484747;fill-opacity:1" />
      <path
         inkscape:connector-curvature="0"
         id="path56"
         d="m 595.48373,-20.47119 c -2.2383,0 -4.4805,-0.85938 -6.1875,-2.5625 -3.4219,-3.4141 -3.4219,-8.9531 0,-12.371 l 24.746,-24.754 c 3.4219,-3.4219 8.9531,-3.4219 12.371,0 3.4219,3.4141 3.4219,8.9531 0,12.371 l -24.742,24.75 c -1.707,1.7148 -3.9453,2.5664 -6.1875,2.5664 z"
         style="fill:#484747;fill-opacity:1" />
      <path
         inkscape:connector-curvature="0"
         id="path58"
         d="m 558.36373,-57.58319 c -2.2383,0 -4.4805,-0.85938 -6.1875,-2.5625 -3.4219,-3.4219 -3.4219,-8.9609 0,-12.371 l 24.754,-24.746 c 3.4219,-3.4219 8.9531,-3.4219 12.371,0 3.4219,3.4219 3.4219,8.9609 0,12.371 l -24.754,24.746 c -1.7031,1.7031 -3.9453,2.5625 -6.1836,2.5625 z"
         style="fill:#484747;fill-opacity:1" />
      <path
         inkscape:connector-curvature="0"
         id="path60"
         d="m 387.68373,-30.27119 c -2.2383,0 -4.4805,-0.85938 -6.1875,-2.5625 -16.766,-16.773 -16.766,-45.105 0,-61.871 16.766,-16.766 45.098,-16.766 61.871,0 3.4219,3.4141 3.4219,8.9531 0,12.371 -3.4141,3.4219 -8.9531,3.4219 -12.371,0 -10.062,-10.055 -27.062,-10.055 -37.125,0 -10.055,10.062 -10.055,27.062 0,37.125 3.4219,3.4219 3.4219,8.9609 0,12.371 -1.7109,1.707 -3.9492,2.5664 -6.1875,2.5664 z"
         style="fill:#484747;fill-opacity:1" />
      <path
         inkscape:connector-curvature="0"
         id="path62"
         d="m 617.67373,100.70881 c -2.2383,0 -4.4805,-0.85938 -6.1875,-2.5625 l -180.49,-180.49 c -3.4219,-3.4219 -3.4219,-8.9531 0,-12.371 3.4219,-3.4219 8.9531,-3.4219 12.371,0 l 180.48,180.48 c 3.4219,3.4219 3.4219,8.9531 0,12.371 -1.7031,1.7148 -3.9453,2.5664 -6.1758,2.5664 z"
         style="fill:#484747;fill-opacity:1" />
      <path
         inkscape:connector-curvature="0"
         id="path64"
         d="m 592.92373,160.22881 c -11.277,0 -22.547,-4.1914 -30.941,-12.574 -3.4219,-3.4141 -3.4219,-8.9531 0,-12.371 3.4141,-3.4219 8.9531,-3.4219 12.371,0 10.062,10.055 27.062,10.055 37.125,0 10.055,-10.062 10.055,-27.062 0,-37.125 -3.4219,-3.4219 -3.4219,-8.9609 0,-12.371 3.4219,-3.4219 8.9531,-3.4219 12.371,0 16.766,16.773 16.766,45.105 0,61.871 -8.3672,8.3789 -19.648,12.57 -30.926,12.57 z"
         style="fill:#484747;fill-opacity:1" />
      <path
         inkscape:connector-curvature="0"
         id="path66"
         d="m 592.92373,61.22881 c -11.277,0 -22.547,-4.1914 -30.941,-12.574 -3.4219,-3.4141 -3.4219,-8.9531 0,-12.371 3.4141,-3.4219 8.9531,-3.4219 12.371,0 10.062,10.055 27.062,10.055 37.125,0 10.062,-10.062 10.062,-27.062 0,-37.125 -3.4219,-3.4219 -3.4219,-8.9531 0,-12.371 3.4219,-3.4219 8.9531,-3.4219 12.371,0 16.773,16.773 16.773,45.098 0,61.871 -8.3672,8.3789 -19.648,12.57 -30.926,12.57 z"
         style="fill:#484747;fill-opacity:1" />
      <path
         inkscape:connector-curvature="0"
         id="path68"
         d="m 617.67373,1.71881 c -2.2383,0 -4.4805,-0.85938 -6.1875,-2.5625 l -81.496,-81.496 c -3.4219,-3.4219 -3.4219,-8.9531 0,-12.371 3.4219,-3.4219 8.9531,-3.4219 12.371,0 l 81.496,81.496 c 3.4219,3.4219 3.4219,8.9531 0,12.371 -1.7109,1.707 -3.9531,2.5625 -6.1836,2.5625 z"
         style="fill:#484747;fill-opacity:1" />
      <path
         inkscape:connector-curvature="0"
         id="path70"
         d="m 486.68373,-30.27119 c -2.2383,0 -4.4805,-0.85938 -6.1875,-2.5625 -16.766,-16.773 -16.766,-45.105 0,-61.871 16.766,-16.766 45.098,-16.773 61.871,0 3.4219,3.4219 3.4219,8.9531 0,12.371 -3.4219,3.4219 -8.9531,3.4219 -12.371,0 -10.062,-10.055 -27.055,-10.062 -37.125,0 -10.055,10.062 -10.055,27.062 0,37.125 3.4219,3.4219 3.4219,8.9609 0,12.371 -1.707,1.707 -3.9492,2.5664 -6.1875,2.5664 z"
         style="fill:#484747;fill-opacity:1" />
      <path
         inkscape:connector-curvature="0"
         id="path72"
         d="m 568.17373,150.21881 c -2.2383,0 -4.4805,-0.85938 -6.1875,-2.5625 l -180.48,-180.5 c -3.4219,-3.4219 -3.4219,-8.9531 0,-12.371 3.4219,-3.4219 8.9531,-3.4219 12.371,0 l 180.48,180.48 c 3.4219,3.4219 3.4219,8.9531 0,12.371 -1.7031,1.7188 -3.9453,2.5742 -6.1836,2.5742 z"
         style="fill:#484747;fill-opacity:1" />
      <path
         inkscape:connector-curvature="0"
         id="path74"
         d="m 217.73373,357.28881 c -2.2383,0 -4.4805,-0.85938 -6.1875,-2.5625 -3.4219,-3.4219 -3.4219,-8.9609 0,-12.371 l 24.754,-24.746 c 3.4219,-3.4219 8.9531,-3.4219 12.371,0 3.4219,3.4219 3.4219,8.9609 0,12.371 l -24.754,24.746 c -1.7031,1.707 -3.9453,2.5625 -6.1836,2.5625 z"
         style="fill:#484747;fill-opacity:1" />
      <path
         inkscape:connector-curvature="0"
         id="path76"
         d="m 180.61373,320.15881 c -2.2383,0 -4.4805,-0.85938 -6.1875,-2.5625 -3.4219,-3.4141 -3.4219,-8.9531 0,-12.371 l 24.746,-24.75 c 3.4219,-3.4219 8.9531,-3.4219 12.371,0 3.4219,3.4141 3.4219,8.9531 0,12.371 l -24.746,24.754 c -1.7031,1.707 -3.9453,2.5586 -6.1836,2.5586 z"
         style="fill:#484747;fill-opacity:1" />
      <path
         inkscape:connector-curvature="0"
         id="path78"
         d="m 183.17373,174.23881 c -2.2383,0 -4.4805,-0.85937 -6.1875,-2.5625 -16.766,-16.773 -16.766,-45.105 0,-61.871 16.766,-16.766 45.098,-16.766 61.871,0 3.4219,3.4141 3.4219,8.9531 0,12.371 -3.4141,3.4219 -8.9531,3.4219 -12.371,0 -10.062,-10.055 -27.062,-10.055 -37.125,0 -10.055,10.062 -10.055,27.062 0,37.125 3.4219,3.4219 3.4219,8.9609 0,12.371 -1.707,1.7109 -3.9492,2.5664 -6.1875,2.5664 z"
         style="fill:#484747;fill-opacity:1" />
      <path
         inkscape:connector-curvature="0"
         id="path80"
         d="m 363.66373,354.72881 c -2.2383,0 -4.4805,-0.85938 -6.1875,-2.5625 l -180.5,-180.49 c -3.4219,-3.4219 -3.4219,-8.9531 0,-12.371 3.4219,-3.4219 8.9531,-3.4219 12.371,0 l 180.48,180.48 c 3.4219,3.4219 3.4219,8.9531 0,12.371 -1.6914,1.707 -3.9336,2.5664 -6.1719,2.5664 z"
         style="fill:#484747;fill-opacity:1" />
      <path
         inkscape:connector-curvature="0"
         id="path82"
         d="m 388.40373,364.72881 c -11.277,0 -22.547,-4.1914 -30.941,-12.574 -3.4219,-3.4141 -3.4219,-8.9531 0,-12.371 3.4141,-3.4219 8.9531,-3.4219 12.371,0 10.062,10.055 27.062,10.055 37.125,0 10.055,-10.062 10.055,-27.062 0,-37.125 -3.4219,-3.4219 -3.4219,-8.9609 0,-12.371 3.4219,-3.4219 8.9531,-3.4219 12.371,0 16.766,16.773 16.766,45.105 0,61.871 -8.3672,8.3789 -19.645,12.57 -30.926,12.57 z"
         style="fill:#484747;fill-opacity:1" />
      <path
         inkscape:connector-curvature="0"
         id="path84"
         d="m 289.41373,364.74881 c -11.277,0 -22.547,-4.1914 -30.93,-12.582 -3.4219,-3.4219 -3.4219,-8.9531 0,-12.371 3.4219,-3.4219 8.9531,-3.4219 12.371,0 10.062,10.055 27.055,10.062 37.125,0 10.055,-10.062 10.055,-27.062 0,-37.125 -3.4219,-3.4219 -3.4219,-8.9609 0,-12.371 3.4219,-3.4219 8.9531,-3.4219 12.371,0 16.766,16.773 16.766,45.105 0,61.871 -8.3789,8.375 -19.648,12.578 -30.938,12.578 z"
         style="fill:#484747;fill-opacity:1" />
      <path
         inkscape:connector-curvature="0"
         id="path86"
         d="m 264.66373,354.72881 c -2.2383,0 -4.4805,-0.85938 -6.1875,-2.5625 l -81.496,-81.496 c -3.4219,-3.4219 -3.4219,-8.9531 0,-12.371 3.4219,-3.4219 8.9531,-3.4219 12.371,0 l 81.496,81.496 c 3.4219,3.4219 3.4219,8.9531 0,12.371 -1.7031,1.7031 -3.9414,2.5625 -6.1836,2.5625 z"
         style="fill:#484747;fill-opacity:1" />
      <path
         inkscape:connector-curvature="0"
         id="path88"
         d="m 183.17373,273.22881 c -2.2383,0 -4.4805,-0.85938 -6.1875,-2.5625 -16.773,-16.773 -16.773,-45.098 0,-61.871 16.766,-16.766 45.098,-16.766 61.871,0 3.4219,3.4141 3.4219,8.9531 0,12.371 -3.4141,3.4219 -8.9531,3.4219 -12.371,0 -10.062,-10.055 -27.062,-10.055 -37.125,0 -10.062,10.062 -10.062,27.062 0,37.125 3.4219,3.4219 3.4219,8.9531 0,12.371 -1.707,1.7188 -3.9492,2.5664 -6.1875,2.5664 z"
         style="fill:#484747;fill-opacity:1" />
      <path
         inkscape:connector-curvature="0"
         id="path90"
         d="m 413.16373,305.22881 c -2.2383,0 -4.4805,-0.85938 -6.1875,-2.5625 l -180.48,-180.5 c -3.4219,-3.4219 -3.4219,-8.9531 0,-12.371 3.4219,-3.4219 8.9531,-3.4219 12.371,0 l 180.48,180.48 c 3.4219,3.4219 3.4219,8.9531 0,12.371 -1.7031,1.7188 -3.9414,2.5742 -6.1836,2.5742 z"
         style="fill:#484747;fill-opacity:1" />
      <path
         inkscape:connector-curvature="0"
         id="path92"
         d="m 200.17373,365.01881 c -2.8008,0 -5.6445,-0.375 -8.4688,-1.1289 -12.672,-3.3945 -23.047,-13.773 -26.434,-26.434 -3.0977,-11.559 0.24609,-23.301 9.1602,-32.219 3.4219,-3.4219 8.9531,-3.4219 12.371,0 3.4219,3.4219 3.4219,8.9609 0,12.371 -5.6875,5.6875 -5.6602,11.473 -4.6289,15.312 1.75,6.5352 7.5352,12.312 14.062,14.062 3.8398,1.0234 9.625,1.0586 15.312,-4.6289 3.4141,-3.4219 8.9531,-3.4219 12.371,0 3.4219,3.4141 3.4219,8.9531 0,12.371 -6.7266,6.7422 -15.082,10.293 -23.746,10.293 z"
         style="fill:#484747;fill-opacity:1" />
      <path
         inkscape:connector-curvature="0"
         id="path94"
         d="m 620.23373,-45.21119 c -2.2383,0 -4.4805,-0.85938 -6.1875,-2.5625 -3.4219,-3.4219 -3.4219,-8.9609 0,-12.371 5.6875,-5.6875 5.6602,-11.473 4.6289,-15.312 -1.75,-6.5352 -7.5352,-12.312 -14.062,-14.062 -3.8398,-1.0156 -9.625,-1.0586 -15.312,4.6289 -3.4141,3.4219 -8.9531,3.4219 -12.371,0 -3.4219,-3.4141 -3.4219,-8.9531 0,-12.371 8.918,-8.918 20.668,-12.25 32.219,-9.1602 12.672,3.3945 23.047,13.773 26.434,26.434 3.0977,11.559 -0.24609,23.301 -9.1602,32.219 -1.707,1.7031 -3.9492,2.5586 -6.1875,2.5586 z"
         style="fill:#484747;fill-opacity:1" />
    </g>
  </g>
</svg>
