<?xml version="1.0" encoding="UTF-8" standalone="no"?>
<svg
   xmlns:dc="http://purl.org/dc/elements/1.1/"
   xmlns:cc="http://creativecommons.org/ns#"
   xmlns:rdf="http://www.w3.org/1999/02/22-rdf-syntax-ns#"
   xmlns:svg="http://www.w3.org/2000/svg"
   xmlns="http://www.w3.org/2000/svg"
   xmlns:sodipodi="http://sodipodi.sourceforge.net/DTD/sodipodi-0.dtd"
   xmlns:inkscape="http://www.inkscape.org/namespaces/inkscape"
   width="700pt"
   height="700pt"
   version="1.1"
   viewBox="0 0 700 700"
   id="svg153"
   sodipodi:docname="gym-list.svg"
   inkscape:version="0.92.4 (5da689c313, 2019-01-14)">
  <metadata
     id="metadata157">
    <rdf:RDF>
      <cc:Work
         rdf:about="">
        <dc:format>image/svg+xml</dc:format>
        <dc:type
           rdf:resource="http://purl.org/dc/dcmitype/StillImage" />
        <dc:title></dc:title>
      </cc:Work>
    </rdf:RDF>
  </metadata>
  <sodipodi:namedview
     pagecolor="#ffffff"
     bordercolor="#666666"
     borderopacity="1"
     objecttolerance="10"
     gridtolerance="10"
     guidetolerance="10"
     inkscape:pageopacity="0"
     inkscape:pageshadow="2"
     inkscape:window-width="785"
     inkscape:window-height="480"
     id="namedview155"
     showgrid="false"
     inkscape:zoom="0.25285714"
     inkscape:cx="-25.706215"
     inkscape:cy="466.66667"
     inkscape:window-x="0"
     inkscape:window-y="0"
     inkscape:window-maximized="0"
     inkscape:current-layer="g151" />
  <defs
     id="defs59">
    <symbol
       id="s"
       overflow="visible">
      <path
         d="m3.6562-0.21875c-0.1875 0.09375-0.38672 0.16797-0.59375 0.21875-0.19922 0.050781-0.40625 0.078125-0.625 0.078125-0.66797 0-1.1992-0.17969-1.5938-0.54688-0.38672-0.375-0.57812-0.87891-0.57812-1.5156 0-0.64453 0.19141-1.1484 0.57812-1.5156 0.39453-0.375 0.92578-0.5625 1.5938-0.5625 0.21875 0 0.42578 0.027344 0.625 0.078125 0.20703 0.054687 0.40625 0.125 0.59375 0.21875v0.82812c-0.1875-0.125-0.375-0.21875-0.5625-0.28125-0.17969-0.0625-0.37109-0.09375-0.57812-0.09375-0.36719 0-0.65625 0.12109-0.875 0.35938-0.21094 0.23047-0.3125 0.55469-0.3125 0.96875 0 0.40625 0.10156 0.73047 0.3125 0.96875 0.21875 0.23047 0.50781 0.34375 0.875 0.34375 0.20703 0 0.39844-0.023437 0.57812-0.078125 0.1875-0.0625 0.375-0.16016 0.5625-0.29688z"
         id="path2" />
    </symbol>
    <symbol
       id="b"
       overflow="visible">
      <path
         d="m2.6875-2.1719c-0.085938-0.039063-0.16797-0.070313-0.25-0.09375-0.085938-0.019531-0.16797-0.03125-0.25-0.03125-0.25 0-0.44531 0.085937-0.57812 0.25-0.125 0.15625-0.1875 0.38281-0.1875 0.67188v1.375h-0.96875v-2.9844h0.96875v0.48438c0.11328-0.19531 0.25-0.33594 0.40625-0.42188 0.16406-0.09375 0.35938-0.14062 0.57812-0.14062h0.10938c0.039063 0 0.09375 0.007812 0.15625 0.015625z"
         id="path5" />
    </symbol>
    <symbol
       id="a"
       overflow="visible">
      <path
         d="m3.4375-1.5v0.26562h-2.2344c0.03125 0.23047 0.11328 0.40234 0.25 0.51562 0.13281 0.10547 0.32812 0.15625 0.57812 0.15625 0.20703 0 0.41406-0.023438 0.625-0.078125 0.20703-0.0625 0.42188-0.15625 0.64062-0.28125v0.73438c-0.21875 0.09375-0.44531 0.16406-0.67188 0.20312-0.23047 0.039062-0.45312 0.0625-0.67188 0.0625-0.54297 0-0.96484-0.13281-1.2656-0.40625-0.30469-0.28125-0.45312-0.67188-0.45312-1.1719 0-0.47656 0.14453-0.85938 0.4375-1.1406 0.30078-0.28125 0.70703-0.42188 1.2188-0.42188 0.46875 0 0.84375 0.14062 1.125 0.42188s0.42188 0.66406 0.42188 1.1406zm-0.96875-0.32812c0-0.17578-0.058594-0.31641-0.17188-0.42188-0.10547-0.11328-0.24219-0.17188-0.40625-0.17188-0.1875 0-0.33984 0.054687-0.45312 0.15625-0.11719 0.10547-0.1875 0.25-0.21875 0.4375z"
         id="path8" />
    </symbol>
    <symbol
       id="i"
       overflow="visible">
      <path
         d="m1.7969-1.3438c-0.19922 0-0.35156 0.039062-0.45312 0.10938-0.09375 0.0625-0.14062 0.16406-0.14062 0.29688 0 0.11719 0.035156 0.21094 0.10938 0.28125 0.082031 0.0625 0.19531 0.09375 0.34375 0.09375 0.17578 0 0.32812-0.0625 0.45312-0.1875s0.1875-0.28516 0.1875-0.48438v-0.10938zm1.4688-0.35938v1.7031h-0.96875v-0.4375c-0.125 0.17969-0.27344 0.30859-0.4375 0.39062-0.15625 0.082031-0.35156 0.125-0.57812 0.125-0.3125 0-0.57031-0.085938-0.76562-0.26562-0.1875-0.1875-0.28125-0.42188-0.28125-0.70312 0-0.35156 0.11719-0.61328 0.35938-0.78125 0.23828-0.16406 0.61719-0.25 1.1406-0.25h0.5625v-0.0625c0-0.15625-0.0625-0.26562-0.1875-0.32812-0.11719-0.070312-0.29688-0.10938-0.54688-0.10938-0.21094 0-0.40234 0.023437-0.57812 0.0625-0.17969 0.042969-0.33984 0.10156-0.48438 0.17188v-0.71875c0.19531-0.050781 0.39844-0.085938 0.60938-0.10938 0.20703-0.03125 0.41406-0.046875 0.625-0.046875 0.53906 0 0.92969 0.10938 1.1719 0.32812 0.23828 0.21094 0.35938 0.55469 0.35938 1.0312z"
         id="path11" />
    </symbol>
    <symbol
       id="c"
       overflow="visible">
      <path
         d="m1.5-3.8438v0.85938h0.98438v0.67188h-0.98438v1.2812c0 0.13672 0.023438 0.23047 0.078125 0.28125 0.0625 0.042969 0.17578 0.0625 0.34375 0.0625h0.48438v0.6875h-0.8125c-0.38672 0-0.65625-0.078125-0.8125-0.23438s-0.23438-0.42188-0.23438-0.79688v-1.2812h-0.46875v-0.67188h0.46875v-0.85938z"
         id="path14" />
    </symbol>
    <symbol
       id="h"
       overflow="visible">
      <path
         d="m2.5-2.5469v-1.6094h0.95312v4.1562h-0.95312v-0.4375c-0.13672 0.17969-0.28125 0.30859-0.4375 0.39062-0.15625 0.082031-0.33984 0.125-0.54688 0.125-0.375 0-0.68359-0.14453-0.92188-0.4375-0.23047-0.28906-0.34375-0.67188-0.34375-1.1406 0-0.45703 0.11328-0.83203 0.34375-1.125 0.23828-0.28906 0.54688-0.4375 0.92188-0.4375 0.19531 0 0.375 0.042969 0.53125 0.125 0.16406 0.085938 0.31641 0.21484 0.45312 0.39062zm-0.64062 1.9375c0.20703 0 0.36328-0.070313 0.46875-0.21875 0.11328-0.15625 0.17188-0.37891 0.17188-0.67188 0-0.28125-0.058594-0.49219-0.17188-0.64062-0.10547-0.15625-0.26172-0.23438-0.46875-0.23438-0.19922 0-0.35547 0.078125-0.46875 0.23438-0.10547 0.14844-0.15625 0.35938-0.15625 0.64062 0 0.29297 0.050781 0.51562 0.15625 0.67188 0.11328 0.14844 0.26953 0.21875 0.46875 0.21875z"
         id="path17" />
    </symbol>
    <symbol
       id="g"
       overflow="visible">
      <path
         d="m2.0469-0.60938c0.20703 0 0.36328-0.070313 0.46875-0.21875 0.11328-0.15625 0.17188-0.37891 0.17188-0.67188 0-0.28125-0.058594-0.49219-0.17188-0.64062-0.10547-0.15625-0.26172-0.23438-0.46875-0.23438-0.19922 0-0.35547 0.078125-0.46875 0.23438-0.10547 0.14844-0.15625 0.35938-0.15625 0.64062 0 0.29297 0.050781 0.51562 0.15625 0.67188 0.11328 0.14844 0.26953 0.21875 0.46875 0.21875zm-0.625-1.9375c0.125-0.17578 0.26562-0.30469 0.42188-0.39062 0.16406-0.082031 0.35156-0.125 0.5625-0.125 0.36328 0 0.66406 0.14844 0.90625 0.4375 0.23828 0.29297 0.35938 0.66797 0.35938 1.125 0 0.46875-0.12109 0.85156-0.35938 1.1406-0.24219 0.29297-0.54297 0.4375-0.90625 0.4375-0.21094 0-0.39844-0.042969-0.5625-0.125-0.15625-0.082031-0.29688-0.21094-0.42188-0.39062v0.4375h-0.96875v-4.1562h0.96875z"
         id="path20" />
    </symbol>
    <symbol
       id="f"
       overflow="visible">
      <path
         d="m0.0625-2.9844h0.95312l0.8125 2.0156 0.6875-2.0156h0.95312l-1.2656 3.2656c-0.125 0.33203-0.27344 0.56641-0.4375 0.70312-0.16797 0.13281-0.39062 0.20312-0.67188 0.20312h-0.54688v-0.64062h0.29688c0.16406 0 0.28516-0.027344 0.35938-0.078125 0.070313-0.054688 0.12891-0.14062 0.17188-0.26562l0.03125-0.09375z"
         id="path23" />
    </symbol>
    <symbol
       id="e"
       overflow="visible">
      <path
         d="m0.45312-2.9844h0.96875v2.9844h-0.96875zm0-1.1719h0.96875v0.78125h-0.96875z"
         id="path26" />
    </symbol>
    <symbol
       id="k"
       overflow="visible">
      <path
         d="m3.4688-1.8281v1.8281h-0.96875v-1.3906c0-0.25781-0.007812-0.4375-0.015625-0.53125-0.011719-0.10156-0.03125-0.17578-0.0625-0.21875-0.03125-0.0625-0.085937-0.10938-0.15625-0.14062-0.0625-0.039062-0.13281-0.0625-0.20312-0.0625-0.21094 0-0.37109 0.078125-0.48438 0.23438-0.10547 0.15625-0.15625 0.37109-0.15625 0.64062v1.4688h-0.96875v-2.9844h0.96875v0.4375c0.13281-0.17578 0.28516-0.30469 0.45312-0.39062 0.16406-0.082031 0.34375-0.125 0.53125-0.125 0.34375 0 0.60156 0.10938 0.78125 0.32812 0.1875 0.21094 0.28125 0.51172 0.28125 0.90625z"
         id="path29" />
    </symbol>
    <symbol
       id="j"
       overflow="visible">
      <path
         d="m2.4219-4.1562v0.625h-0.51562c-0.13672 0-0.23438 0.027344-0.29688 0.078125-0.054687 0.054687-0.078125 0.13672-0.078125 0.25v0.21875h0.82812v0.67188h-0.82812v2.3125h-0.95312v-2.3125h-0.46875v-0.67188h0.46875v-0.21875c0-0.32031 0.085937-0.5625 0.26562-0.71875 0.1875-0.15625 0.47266-0.23438 0.85938-0.23438z"
         id="path32" />
    </symbol>
    <symbol
       id="d"
       overflow="visible">
      <path
         d="m1.875-2.375c-0.21094 0-0.37109 0.078125-0.48438 0.23438-0.10547 0.14844-0.15625 0.35938-0.15625 0.64062 0 0.29297 0.050781 0.51562 0.15625 0.67188 0.11328 0.14844 0.27344 0.21875 0.48438 0.21875 0.20703 0 0.36719-0.070313 0.48438-0.21875 0.11328-0.15625 0.17188-0.37891 0.17188-0.67188 0-0.28125-0.058594-0.49219-0.17188-0.64062-0.11719-0.15625-0.27734-0.23438-0.48438-0.23438zm0-0.6875c0.51953 0 0.92188 0.14062 1.2031 0.42188 0.28906 0.27344 0.4375 0.65234 0.4375 1.1406 0 0.5-0.14844 0.89062-0.4375 1.1719-0.28125 0.27344-0.68359 0.40625-1.2031 0.40625-0.51172 0-0.91406-0.13281-1.2031-0.40625-0.29297-0.28125-0.4375-0.67188-0.4375-1.1719 0-0.48828 0.14453-0.86719 0.4375-1.1406 0.28906-0.28125 0.69141-0.42188 1.2031-0.42188z"
         id="path35" />
    </symbol>
    <symbol
       id="r"
       overflow="visible">
      <path
         d="m3.2344-2.5c0.11328-0.17578 0.25391-0.3125 0.42188-0.40625 0.16406-0.10156 0.35156-0.15625 0.5625-0.15625 0.33203 0 0.58594 0.10938 0.76562 0.32812 0.1875 0.21094 0.28125 0.51172 0.28125 0.90625v1.8281h-0.96875v-1.5625c0.007813-0.019531 0.015625-0.039062 0.015625-0.0625v-0.10938c0-0.21875-0.03125-0.375-0.09375-0.46875s-0.16406-0.14062-0.29688-0.14062c-0.1875 0-0.33594 0.078125-0.4375 0.23438-0.09375 0.14844-0.14062 0.35938-0.14062 0.64062v1.4688h-0.96875v-1.5625c0-0.33203-0.03125-0.54688-0.09375-0.64062-0.054688-0.09375-0.15234-0.14062-0.29688-0.14062-0.17969 0-0.32031 0.078125-0.42188 0.23438-0.09375 0.14844-0.14062 0.35938-0.14062 0.64062v1.4688h-0.96875v-2.9844h0.96875v0.4375c0.11328-0.17578 0.24219-0.30469 0.39062-0.39062 0.15625-0.082031 0.32812-0.125 0.51562-0.125 0.20703 0 0.39062 0.054688 0.54688 0.15625 0.15625 0.09375 0.27344 0.23047 0.35938 0.40625z"
         id="path38" />
    </symbol>
    <symbol
       id="q"
       overflow="visible">
      <path
         d="m3.4688-1.8281v1.8281h-0.96875v-1.3906c0-0.25781-0.007812-0.4375-0.015625-0.53125-0.011719-0.10156-0.03125-0.17578-0.0625-0.21875-0.03125-0.0625-0.085937-0.10938-0.15625-0.14062-0.0625-0.039062-0.13281-0.0625-0.20312-0.0625-0.21094 0-0.37109 0.078125-0.48438 0.23438-0.10547 0.15625-0.15625 0.37109-0.15625 0.64062v1.4688h-0.96875v-4.1562h0.96875v1.6094c0.13281-0.17578 0.28516-0.30469 0.45312-0.39062 0.16406-0.082031 0.34375-0.125 0.53125-0.125 0.34375 0 0.60156 0.10938 0.78125 0.32812 0.1875 0.21094 0.28125 0.51172 0.28125 0.90625z"
         id="path41" />
    </symbol>
    <symbol
       id="p"
       overflow="visible">
      <path
         d="m0.5-3.9844h1.1562l1.4375 2.7344v-2.7344h0.98438v3.9844h-1.1562l-1.4375-2.7344v2.7344h-0.98438z"
         id="path44" />
    </symbol>
    <symbol
       id="o"
       overflow="visible">
      <path
         d="m0.42188-1.1719v-1.8125h0.96875v0.29688 0.60938 0.48438c0 0.24219 0.003906 0.41797 0.015625 0.53125 0.007812 0.10547 0.03125 0.17969 0.0625 0.21875 0.039062 0.0625 0.09375 0.11719 0.15625 0.15625 0.0625 0.03125 0.13281 0.046875 0.21875 0.046875 0.19531 0 0.35156-0.078125 0.46875-0.23438 0.11328-0.15625 0.17188-0.36719 0.17188-0.64062v-1.4688h0.95312v2.9844h-0.95312v-0.4375c-0.14844 0.17969-0.30469 0.30859-0.46875 0.39062-0.15625 0.082031-0.33594 0.125-0.53125 0.125-0.34375 0-0.60938-0.10156-0.79688-0.3125-0.17969-0.21875-0.26562-0.53125-0.26562-0.9375z"
         id="path47" />
    </symbol>
    <symbol
       id="n"
       overflow="visible">
      <path
         d="m0.5-3.9844h1.7031c0.50781 0 0.89844 0.11719 1.1719 0.34375 0.26953 0.21875 0.40625 0.53906 0.40625 0.95312 0 0.41797-0.13672 0.74219-0.40625 0.96875-0.27344 0.21875-0.66406 0.32812-1.1719 0.32812h-0.67188v1.3906h-1.0312zm1.0312 0.75v1.1094h0.5625c0.19531 0 0.34766-0.046875 0.45312-0.14062 0.11328-0.10156 0.17188-0.24219 0.17188-0.42188 0-0.17578-0.058594-0.3125-0.17188-0.40625-0.10547-0.09375-0.25781-0.14062-0.45312-0.14062z"
         id="path50" />
    </symbol>
    <symbol
       id="m"
       overflow="visible">
      <path
         d="m0.45312-2.9844h0.96875v2.9375c0 0.39453-0.10156 0.69531-0.29688 0.90625-0.1875 0.21875-0.46484 0.32812-0.82812 0.32812h-0.48438v-0.64062h0.17188c0.17578 0 0.29688-0.042969 0.35938-0.125 0.070312-0.074219 0.10938-0.23047 0.10938-0.46875zm0-1.1719h0.96875v0.78125h-0.96875z"
         id="path53" />
    </symbol>
    <symbol
       id="l"
       overflow="visible">
      <path
         d="m2.875-2.8906v0.76562c-0.125-0.082031-0.25781-0.14453-0.39062-0.1875-0.13672-0.039062-0.27344-0.0625-0.40625-0.0625-0.27344 0-0.48047 0.078125-0.625 0.23438-0.14844 0.15625-0.21875 0.37109-0.21875 0.64062 0 0.28125 0.070313 0.5 0.21875 0.65625 0.14453 0.15625 0.35156 0.23438 0.625 0.23438 0.14453 0 0.28516-0.019531 0.42188-0.0625 0.13281-0.039063 0.25781-0.10938 0.375-0.20312v0.78125c-0.14844 0.0625-0.29688 0.10156-0.45312 0.125-0.15625 0.03125-0.3125 0.046875-0.46875 0.046875-0.54297 0-0.96484-0.13281-1.2656-0.40625-0.30469-0.28125-0.45312-0.67188-0.45312-1.1719 0-0.48828 0.14844-0.86719 0.45312-1.1406 0.30078-0.28125 0.72266-0.42188 1.2656-0.42188 0.15625 0 0.3125 0.015625 0.46875 0.046875 0.15625 0.023437 0.30469 0.0625 0.45312 0.125z"
         id="path56" />
    </symbol>
  </defs>
  <g
     id="g151">
    <path
       d="M 558.49,15.793 H 141.51 c -1.8125,0 -3.2812,1.4688 -3.2812,3.2812 v 521.85 c 0,1.8125 1.4688,3.2812 3.2812,3.2812 h 416.98 c 1.8125,0 3.2812,-1.4688 3.2812,-3.2812 v -521.85 c 0,-1.8125 -1.4688,-3.2812 -3.2812,-3.2812 z M 258.19,42.191 V 22.355 H 441.85 V 60.507 L 258.19,60.5031 Z m -3.2812,24.879 h 190.22 c 1.8125,0 3.2812,-1.4688 3.2812,-3.2812 v -18.316 h 79.062 v 469.04 l -354.95,-0.004 V 45.468893 h 79.102 v 18.316 c 0,1.8125 1.4688,3.2812 3.2812,3.2812 z m 300.3,470.57 h -410.42 V 22.35 h 106.84 v 16.555 h -82.383 c -1.8125,0 -3.2812,1.4688 -3.2812,3.2812 v 475.6 c 0,1.8125 1.4688,3.2812 3.2812,3.2812 h 361.51 c 1.8125,0 3.2812,-1.4688 3.2812,-3.2812 v -475.6 c 0,-1.8125 -1.4688,-3.2812 -3.2812,-3.2812 h -82.344 V 22.35 h 106.8 z"
       id="path61"
       inkscape:connector-curvature="0" />
    <path
       d="m 296.17,236.35 h -80.73 c -1.8125,0 -3.2812,1.4688 -3.2812,3.2812 v 80.719 c 0,1.8125 1.4688,3.2812 3.2812,3.2812 h 80.73 c 1.8125,0 3.2812,-1.4688 3.2812,-3.2812 v -80.719 c 0,-1.8125 -1.4688,-3.2812 -3.2812,-3.2812 z m -3.2812,80.715 h -74.168 v -74.156 h 74.168 z"
       id="path63"
       inkscape:connector-curvature="0" />
    <path
       d="m 296.17,354.84 h -80.73 c -1.8125,0 -3.2812,1.4688 -3.2812,3.2812 v 80.734 c 0,1.8125 1.4688,3.2812 3.2812,3.2812 h 80.73 c 1.8125,0 3.2812,-1.4688 3.2812,-3.2812 v -80.734 c 0,-1.8125 -1.4688,-3.2812 -3.2812,-3.2812 z m -3.2812,80.734 h -74.168 v -74.172 h 74.168 z"
       id="path65"
       inkscape:connector-curvature="0" />
    <path
       d="M 484.56,276.71 H 349.49 c -1.8125,0 -3.2812,1.4688 -3.2812,3.2812 0,1.8124 1.4688,3.2812 3.2812,3.2812 h 135.07 c 1.8086,0 3.2812,-1.4688 3.2812,-3.2812 0,-1.8124 -1.4648,-3.2812 -3.2812,-3.2812 z"
       id="path67"
       inkscape:connector-curvature="0" />
    <path
       d="M 484.56,395.21 H 349.49 c -1.8125,0 -3.2812,1.4688 -3.2812,3.2812 0,1.8124 1.4688,3.2812 3.2812,3.2812 h 135.07 c 1.8086,0 3.2812,-1.4688 3.2812,-3.2812 0,-1.8124 -1.4648,-3.2812 -3.2812,-3.2812 z"
       id="path69"
       inkscape:connector-curvature="0" />
    <path
       d="m 244.07,297.03 c 0.61328,0.61719 1.4492,0.96484 2.3203,0.96484 h 0.004 c 0.87109,0 1.7031,-0.34375 2.3203,-0.96094 l 29.457,-29.434 c 1.2812,-1.2812 1.2812,-3.3594 0,-4.6406 -1.2812,-1.2812 -3.3594,-1.2812 -4.6406,0 l -27.133,27.109 -8.2812,-8.3008 c -1.2812,-1.2812 -3.3555,-1.2852 -4.6406,-0.008 -1.2812,1.2812 -1.2852,3.3594 -0.008,4.6406 z"
       id="path71"
       inkscape:connector-curvature="0" />
    <path
       d="m 244.07,415.53 c 0.61328,0.61719 1.4492,0.96094 2.3203,0.96484 h 0.004 c 0.87109,0 1.7031,-0.34375 2.3203,-0.96094 l 29.457,-29.426 c 1.2812,-1.2812 1.2812,-3.3594 0.004,-4.6406 -1.2812,-1.2852 -3.3594,-1.2852 -4.6406,-0.004 l -27.133,27.102 -8.2812,-8.2969 c -1.2812,-1.2812 -3.3555,-1.2852 -4.6406,-0.004 -1.2812,1.2812 -1.2852,3.3555 -0.004,4.6406 z"
       id="path73"
       inkscape:connector-curvature="0" />
    <path
       d="M 405.15,36.246 H 294.96 c -1.8125,0 -3.2812,1.4688 -3.2812,3.2812 0,1.8124 1.4688,3.2812 3.2812,3.2812 h 110.2 c 1.8125,0 3.2812,-1.4688 3.2812,-3.2812 -0.004,-1.8125 -1.4727,-3.2812 -3.2852,-3.2812 z"
       id="path75"
       inkscape:connector-curvature="0" />
    <path
       d="m 240.77,116.36 c -3.3477,-3.4961 -8.0508,-5.6875 -13.266,-5.6875 -10.113,0 -18.34,8.2344 -18.34,18.352 v 7.2852 c -8.5664,1.3164 -15.086,7.6797 -15.086,15.316 v 7.6602 c 0,7.6406 6.5195,14 15.086,15.32 v 7.2852 c 0,10.121 8.2266,18.352 18.34,18.352 5.2148,0 9.918,-2.1914 13.266,-5.6875 2.9961,7.5195 10.328,12.852 18.895,12.852 11.242,0 20.387,-9.1367 20.387,-20.367 v -16.441 h 138.92 v 16.441 c 0,11.23 9.1328,20.367 20.352,20.367 8.5781,0 15.922,-5.332 18.926,-12.848 3.3438,3.4922 8.0352,5.6836 13.238,5.6836 10.133,0 18.371,-8.2344 18.371,-18.352 v -7.2891 c 8.5469,-1.3203 15.055,-7.6797 15.055,-15.316 v -7.6602 c 0,-7.6367 -6.5039,-13.996 -15.055,-15.316 v -7.2852 c 0,-10.121 -8.2422,-18.352 -18.371,-18.352 -5.2031,0 -9.8945,2.1875 -13.238,5.6836 -3,-7.5156 -10.344,-12.848 -18.926,-12.848 -11.223,0 -20.352,9.1367 -20.352,20.367 v 16.441 l -138.92,-0.004 v -16.441 c 0,-11.23 -9.1445,-20.367 -20.387,-20.367 -8.5703,0.004 -15.902,5.3359 -18.898,12.855 z m -31.605,51.578 c -4.8633,-1.1172 -8.5234,-4.625 -8.5234,-8.6484 v -7.6602 c 0,-4.0234 3.6602,-7.5312 8.5234,-8.6484 z m 30.156,13.988 c -0.0156,6.4883 -5.3086,11.758 -11.812,11.758 -6.4922,0 -11.777,-5.2891 -11.777,-11.789 v -52.867 c 0,-6.5 5.2812,-11.789 11.777,-11.789 6.5039,0 11.797,5.2734 11.812,11.758 z m 250.54,-38.941 c 4.8438,1.1211 8.4922,4.625 8.4922,8.6445 v 7.6602 c 0,4.0195 -3.6484,7.5273 -8.4922,8.6445 z m -30.156,-13.957 c 0,-6.5 5.2852,-11.789 11.781,-11.789 6.5117,0 11.809,5.2891 11.809,11.789 v 52.867 c 0,6.5 -5.2969,11.789 -11.809,11.789 -6.4961,0 -11.781,-5.2891 -11.781,-11.789 z m -34.168,-5.1523 c 0,-7.6133 6.1875,-13.805 13.789,-13.805 7.6172,0 13.82,6.1914 13.82,13.805 v 63.172 c 0,7.6133 -6.1992,13.805 -13.82,13.805 -7.6055,0 -13.789,-6.1914 -13.789,-13.805 z m -145.48,23.004 h 138.92 v 17.164 h -138.92 z m -34.172,35.047 v -0.0312 -52.867 -0.0312 -5.1211 c 0,-7.6133 6.1836,-13.805 13.785,-13.805 7.6211,0 13.824,6.1914 13.824,13.805 v 19.711 0.0117 23.727 0.0117 19.711 c 0,7.6133 -6.2031,13.805 -13.824,13.805 -7.6016,0 -13.785,-6.1914 -13.785,-13.805 z"
       id="path77"
       inkscape:connector-curvature="0" />
  </g>
</svg>
